PathFileType	4	(X/Y/Z)	0_coords_data.trc
DataRate	CameraRate	NumFrames	NumMarkers	Units	OrigDataRate	OrigDataStartFrame	OrigNumFrames
30.0	30.0	6	21	m	30.0	39	57
Frame#	Time	THUMB_TIP	THUMB_IP	THUMB_MCP	THUMB_CMC	INDEX_TIP	INDEX_DIP	INDEX_PIP	INDEX_MCP	MIDDLE_TIP	MIDDLE_DIP	MIDDLE_PIP	MIDDLE_MCP	RING_TIP	RING_DIP	RING_PIP	RING_MCP	PINKY_TIP	PINKY_DIP	PINKY_PIP	PINKY_MCP	WRIST
X1	Y1	Z1	X2	Y2	Z2	X3	Y3	Z3	X4	Y4	Z4	X5	Y5	Z5	X6	Y6	Z6	X7	Y7	Z7	X8	Y8	Z8	X9	Y9	Z9	X10	Y10	Z10	X11	Y11	Z11	X12	Y12	Z12	X13	Y13	Z13	X14	Y14	Z14	X15	Y15	Z15	X16	Y16	Z16	X17	Y17	Z17	X18	Y18	Z18	X19	Y19	Z19	X20	Y20	Z20	X21	Y21	Z21
38	1.2666666666666666	0.015190899848937988	-0.10189499664306641	0.9964000244140625	0.00794851016998291	-0.07743379974365235	1.0088300170898437	-0.009371720314025878	-0.061692298889160155	1.03247998046875	-0.013104700088500976	-0.024505500793457032	1.0434200439453125	0.04471689987182617	-0.05418040084838867	0.956573974609375	0.023611499786376954	-0.05574359893798828	0.9505440063476562	-0.002636169910430908	-0.05525680160522461	0.9522880249023438	-0.029742700576782227	-0.04526219940185547	0.9839749755859375	0.049479499816894534	-0.035239498138427736	0.9587319946289062	0.031449499130249026	-0.032470298767089845	0.9453280029296875	0.000996284008026123	-0.028821399688720703	0.9409500122070312	-0.029847799301147462	-0.019859100341796877	0.9756840209960937	0.04752510070800781	-0.010131699562072754	0.9550139770507813	0.031344999313354494	-0.005156169891357422	0.9408300170898437	0.0023152201175689687	-0.0009222670197486871	0.9366119995117187	-0.023152700424194338	0.003002099990844726	0.9744500122070312	0.03210179901123047	0.013761500358581542	0.9609949951171874	0.02209670066833496	0.024493099212646485	0.9506729736328124	0.0024462199211120602	0.031791299819946287	0.9490989990234375	-0.014554499626159668	0.026427499771118163	0.9770079956054688	-0.038588100433349606	0.006589029788970947	1.061550048828125
39	1.3	0.017291299819946288	-0.10035199737548828	0.9961890258789062	0.008896889686584473	-0.07659149932861328	1.0092100219726563	-0.009029000282287598	-0.06138140106201172	1.0325899658203126	-0.013459799766540527	-0.02439150047302246	1.0436300048828124	0.043502498626708984	-0.0570452995300293	0.9484650268554687	0.021448400497436522	-0.05723300170898438	0.9462730102539062	-0.004163479804992676	-0.055636398315429686	0.9513060302734375	-0.029416200637817382	-0.04522949981689453	0.9840170288085938	0.0513390998840332	-0.036537399291992186	0.9490759887695313	0.030209999084472656	-0.0330974006652832	0.9396849975585938	-0.00054712700843811	-0.0287898006439209	0.9399299926757813	-0.029416500091552736	-0.020108400344848634	0.9753090209960937	0.048897300720214844	-0.010373600006103515	0.9463759765625	0.029725099563598634	-0.0050293498039245595	0.9358709716796875	0.000279094010591506	-0.0008006410002708431	0.9359329833984374	-0.02265999984741211	0.002696280002593994	0.9741900024414063	0.032931400299072267	0.015711600303649903	0.956052001953125	0.02046940040588379	0.026080299377441406	0.9477589721679688	0.0007559270262718201	0.03243000030517578	0.9483900146484375	-0.01407639980316162	0.026209999084472656	0.9772890014648438	-0.03915570068359375	0.006541629791259765	1.06156005859375
40	1.3333333333333333	0.018254800796508788	-0.09989990234375	0.9976820068359376	0.00914842987060547	-0.07622470092773438	1.0102899780273438	-0.009235890388488769	-0.06098109817504883	1.0334100341796875	-0.01377970027923584	-0.023970100402832033	1.04393994140625	0.04068999862670898	-0.06056990051269531	0.9407130126953125	0.018609100341796875	-0.059325801849365235	0.9423909912109375	-0.006037899971008301	-0.05639810180664063	0.950708984375	-0.028526899337768554	-0.04542729949951172	0.98443701171875	0.05103900146484375	-0.03778889846801758	0.9381610107421875	0.02841510009765625	-0.0338849983215332	0.9341719970703125	-0.0023261699676513673	-0.029013299942016603	0.9389619750976562	-0.028657800674438478	-0.02039240074157715	0.9756060180664062	0.04827830123901367	-0.010271499633789063	0.9364910278320312	0.027256200790405274	-0.0048753700256347655	0.9304869995117188	-0.002043339967727661	-0.000795382022857666	0.93481298828125	-0.021700700759887694	0.00228836989402771	0.9742349853515625	0.03396849822998047	0.017422199249267578	0.9516079711914063	0.019755699157714843	0.027256399154663085	0.945166015625	-0.000336394995450973	0.03271730041503906	0.948156005859375	-0.013548100471496582	0.025900699615478515	0.9773709716796875	-0.039792900085449216	0.0069449000358581545	1.062010009765625
41	1.3666666666666667	0.019581699371337892	-0.09941510009765625	0.998708984375	0.009648260116577148	-0.07559860229492188	1.0113699951171875	-0.008846830368041993	-0.06056280136108398	1.033969970703125	-0.013923100471496582	-0.02352639961242676	1.0444000244140625	0.03828200149536133	-0.06288840103149414	0.93493701171875	0.01635260009765625	-0.06074769973754883	0.9395369873046875	-0.007158030033111573	-0.05698740005493164	0.950448974609375	-0.027912200927734374	-0.045538700103759766	0.9847839965820312	0.04966809844970703	-0.03836800003051758	0.9302319946289063	0.02647480010986328	-0.03412599945068359	0.9303359985351562	-0.003506700038909912	-0.029124000549316405	0.938635009765625	-0.02850429916381836	-0.020680400848388673	0.97622900390625	0.04702479934692383	-0.009687199592590331	0.9291110229492188	0.02486039924621582	-0.004575689792633056	0.9269000244140625	-0.003733500003814697	-0.0007124750018119811	0.9345490112304687	-0.021435400009155274	0.002040479898452759	0.9742960205078125	0.03392530059814453	0.019320199966430664	0.947468994140625	0.01848349952697754	0.028253599166870116	0.9433579711914063	-0.0015609500408172601	0.032982101440429686	0.9478720092773437	-0.013896599769592285	0.02569219970703125	0.97743701171875	-0.04012089920043945	0.007068669795989991	1.062550048828125
42	1.4	0.021679399490356445	-0.0980604019165039	0.9991810302734375	0.011124799728393555	-0.07448960113525391	1.011969970703125	-0.008077770233154298	-0.0600609016418457	1.0344000244140625	-0.013756500244140626	-0.023274200439453125	1.0447099609375	0.03517649841308594	-0.06452950286865235	0.9302449951171875	0.013962300300598144	-0.061648101806640626	0.9372960205078125	-0.008466190338134765	-0.05728680038452148	0.9501480102539063	-0.027591400146484375	-0.04563040161132813	0.9852630004882813	0.04755519866943359	-0.0384734992980957	0.9233469848632813	0.024329399108886717	-0.03410760116577148	0.9268909912109375	-0.0047603797912597655	-0.02906159973144531	0.9381010131835937	-0.028136899948120117	-0.020931299209594727	0.9760399780273438	0.04539279937744141	-0.009039159774780273	0.9232150268554687	0.02294029998779297	-0.004238570213317871	0.9241119995117187	-0.0050078902244567874	-0.0006216350197792051	0.9344219970703125	-0.021359500885009767	0.0018082200288772581	0.9748209838867188	0.03406689834594727	0.020897499084472658	0.9442639770507812	0.01758289909362793	0.029059900283813476	0.94214599609375	-0.002295619964599609	0.03298659896850586	0.9479749755859375	-0.013928199768066406	0.025431800842285156	0.977635986328125	-0.040570899963378905	0.007055439949035644	1.06277001953125
43	1.4333333333333333	0.024368200302124023	-0.09638980102539063	1.00072998046875	0.012830800056457519	-0.07338289642333984	1.0132899780273437	-0.007572070121765136	-0.05943389892578125	1.0353399658203124	-0.013722000122070312	-0.022993099212646483	1.045239990234375	0.031633100509643554	-0.06725700378417969	0.9257490234375	0.011229299545288085	-0.06336410140991211	0.9354199829101563	-0.009212409973144531	-0.058144901275634764	0.9503720092773438	-0.026878000259399414	-0.04587250137329101	0.9857789916992188	0.044642501831054685	-0.039375999450683596	0.9159039916992188	0.022034000396728516	-0.03473509979248047	0.923656005859375	-0.005372000217437744	-0.029572399139404296	0.9383289794921875	-0.027330900192260744	-0.02127079963684082	0.9765490112304688	0.04380580139160156	-0.008931449890136719	0.9171309814453125	0.02125819969177246	-0.004229939937591552	0.921875	-0.00559577989578247	-0.0008877149820327751	0.9347930297851562	-0.020805700302124024	0.0013992500305175782	0.9751530151367187	0.03449599838256836	0.022301599502563475	0.9410650024414062	0.017257299423217774	0.029523000717163086	0.9410560302734375	-0.002471820116043091	0.032695701599121094	0.948197021484375	-0.01343179988861084	0.02500239944458008	0.9780280151367188	-0.04098649978637695	0.007213749885559082	1.062989990234375
